<?xml version="1.0" encoding="utf-8"?>
<!DOCTYPE svg PUBLIC "-//W3C//DTD SVG 1.1//EN" "http://www.w3.org/Graphics/SVG/1.1/DTD/svg11.dtd">
<svg version="1.1" id="Layer_1" xmlns="http://www.w3.org/2000/svg" xmlns:xlink="http://www.w3.org/1999/xlink" x="0px" y="0px"
   width="512px" height="512px" viewBox="0 0 512 512" enable-background="new 0 0 512 512" xml:space="preserve">
<g>
  <path d="M256,0C114.609,0,0,114.609,0,256c0,141.392,114.609,256,256,256c141.392,0,256-114.608,256-256
    C512,114.609,397.392,0,256,0z M256,472c-119.297,0-216-96.702-216-216c0-119.297,96.703-216,216-216c119.298,0,216,96.703,216,216
    C472,375.298,375.298,472,256,472z" fill="#666366"/>

  <path d="M222.012,293.484v25.212L132.4,279.849v-21.556l89.612-38.838v25.388l-62.439,24.058L222.012,293.484z" fill="#666366" />
  <path d="M277.425,218.919l-24.95,102.713c-0.83,3.38-1.554,6.056-2.178,8.018c-0.624,1.961-1.569,3.495-2.847,4.581
    c-1.277,1.102-3.133,1.649-5.572,1.649c-6.05,0-9.083-2.62-9.083-7.835c0-1.368,0.593-4.783,1.78-10.245l24.854-102.713
    c1.308-5.461,2.555-9.204,3.742-11.22c1.187-2.019,3.5-3.03,6.95-3.03c2.968,0,5.241,0.714,6.81,2.14
    c1.574,1.426,2.364,3.387,2.364,5.879C279.296,210.697,278.667,214.051,277.425,218.919z" fill="#666366" />
  <path d="M379.599,279.849l-89.611,39.022v-25.212l62.625-24.583l-62.625-24.234v-25.031l89.611,38.658V279.849z" fill="#666366" />
</g>
</svg>
