<svg width="330" height="600" viewBox="0 0 330 600" xmlns="http://www.w3.org/2000/svg">
  <title>latest-news</title>
  <g fill="none" fill-rule="evenodd">
    <path fill="#D4D4CE" d="M0 0h330v600H0z"/>
    <g fill="#9F9E97"><path d="M28 173h221v20H28zM28 149h252v20H28zM28 124h243v20H28zM28 100h255v20H28z"/></g>
    <g fill="#9F9E97"><path d="M28 293h221v20H28zM28 269h252v20H28zM28 244h243v20H28zM28 220h255v20H28z"/></g>
    <g fill="#9F9E97"><path d="M28 413h221v20H28zM28 389h252v20H28zM28 364h243v20H28zM28 340h255v20H28z"/></g>
    <g fill="#9F9E97"><path d="M28 533h221v20H28zM28 509h252v20H28zM28 484h243v20H28zM28 460h255v20H28z"/></g>
  </g>
</svg>
