<svg xmlns="http://www.w3.org/2000/svg" width="524" height="228" viewBox="0 0 524 228" version="1.1"><title>Repeatable Items</title><desc>Created with Sketch.</desc><g stroke="none" stroke-width="1" fill="none" fill-rule="evenodd"><g transform="translate(-76.000000, -390.000000)"><g transform="translate(76.000000, 87.000000)"><g transform="translate(0.000000, 303.000000)"><rect fill="#DADADA" x="142" y="0" width="211" height="23"/><rect fill="#DADADA" x="142" y="32" width="381" height="11"/><rect fill="#DADADA" x="142" y="49" width="381" height="11"/><rect fill="#DADADA" x="142" y="66" width="381" height="11"/><g transform="translate(0.000000, 1.000000)"><rect stroke="#DCDCDC" x="0" y="0" width="132" height="76"/><rect fill="#D8D8D8" transform="translate(66.000000, 38.684211) rotate(-336.000000) translate(-66.000000, -38.684211) " x="0.25" y="38.37" width="131.49" height="0.63"/><rect fill="#D8D8D8" transform="translate(66.000000, 38.684211) scale(-1, 1) rotate(-334.000000) translate(-66.000000, -38.684211) " x="0.25" y="38.37" width="131.49" height="0.63"/></g></g><g transform="translate(250.000000, 389.000000)"><rect fill="#D8D8D8" x="10" y="0" width="3" height="52"/><circle fill="#D8D8D8" cx="12" cy="26" r="12"/><path d="M7.77 24.48L5.53 24.48 5.53 27 7.77 27 7.77 24.48ZM13.06 24.48L10.81 24.48 10.81 27 13.06 27 13.06 24.48ZM18.36 24.48L16.11 24.48 16.11 27 18.36 27 18.36 24.48Z" fill="#666366"/></g><g transform="translate(0.000000, 453.000000)"><rect fill="#DADADA" x="142" y="0" width="211" height="23"/><rect fill="#DADADA" x="142" y="32" width="381" height="11"/><rect fill="#DADADA" x="142" y="49" width="381" height="11"/><rect fill="#DADADA" x="142" y="66" width="381" height="11"/><rect stroke="#DCDCDC" x="0" y="0" width="132" height="76"/><rect fill="#D8D8D8" transform="translate(66.000000, 38.684211) rotate(-336.000000) translate(-66.000000, -38.684211) " x="0.25" y="38.37" width="131.49" height="0.63"/><rect fill="#D8D8D8" transform="translate(66.000000, 38.684211) scale(-1, 1) rotate(-334.000000) translate(-66.000000, -38.684211) " x="0.25" y="38.37" width="131.49" height="0.63"/></g></g></g></g></svg>